<svg width="54" height="52" viewBox="0 0 54 52" fill="none" xmlns="http://www.w3.org/2000/svg">
<path d="M51.5 1H0.5L51.5 51.5V1Z" fill="#FF8900"/>
<path d="M29.1421 18.7865C28.4011 18.0454 28.0985 17.1828 28.2342 16.1985C28.3813 15.2142 28.9215 14.2553 29.8549 13.322C30.7883 12.3886 31.7443 11.8512 32.7229 11.7098C33.7129 11.5683 34.5784 11.8682 35.3194 12.6092C36.0661 13.3559 36.3659 14.2214 36.2189 15.2057C36.0775 16.1843 35.54 17.1403 34.6067 18.0737C33.6733 19.0071 32.7145 19.5473 31.7302 19.6944C30.7515 19.8358 29.8889 19.5332 29.1421 18.7865ZM29.8804 16.2494C29.7559 16.7811 29.8917 17.245 30.2877 17.641C30.6836 18.0369 31.1503 18.1699 31.6877 18.0398C32.2308 17.9153 32.8163 17.5391 33.4442 16.9112C34.0778 16.2777 34.4568 15.6894 34.5812 15.1463C34.7113 14.6089 34.5784 14.1422 34.1824 13.7462C33.7864 13.3502 33.3197 13.2173 32.7823 13.3474C32.2449 13.4775 31.6594 13.8594 31.0259 14.4929C30.3923 15.1265 30.0105 15.712 29.8804 16.2494ZM38.2583 20.3508C37.7209 20.3451 37.2486 20.1386 36.8413 19.7313C36.434 19.324 36.2275 18.846 36.2219 18.2973C36.2219 17.7543 36.417 17.2876 36.8073 16.8972C37.1977 16.5069 37.6644 16.3118 38.2074 16.3118C38.7561 16.3174 39.2341 16.5239 39.6414 16.9312C40.0487 17.3385 40.2524 17.8137 40.2524 18.3567C40.258 18.8941 40.0629 19.3608 39.6669 19.7568C39.2709 20.1528 38.8014 20.3508 38.2583 20.3508ZM33.6508 21.2587L41.8221 20.8259L42.0512 21.632L33.8629 22.0648L33.6508 21.2587ZM37.4607 18.3313C37.4607 18.5349 37.5371 18.7131 37.6898 18.8658C37.8425 19.0186 38.0207 19.0949 38.2244 19.0949C38.4337 19.0893 38.6147 19.0101 38.7674 18.8573C38.9202 18.7046 38.9965 18.5264 38.9965 18.3228C38.9965 18.1191 38.9202 17.9409 38.7674 17.7882C38.6147 17.6355 38.4365 17.5591 38.2329 17.5591C38.0349 17.5648 37.8595 17.644 37.7068 17.7967C37.554 17.9494 37.472 18.1276 37.4607 18.3313ZM37.7747 26.5705C37.2316 26.5705 36.7564 26.3668 36.3491 25.9595C35.9418 25.5522 35.7382 25.0771 35.7382 24.534C35.7382 23.9909 35.9334 23.5243 36.3237 23.1339C36.714 22.7436 37.1807 22.5484 37.7237 22.5484C38.2668 22.5484 38.742 22.7521 39.1493 23.1594C39.5566 23.5667 39.7602 24.0419 39.7602 24.5849C39.7602 25.128 39.5651 25.5947 39.1747 25.985C38.7844 26.3753 38.3177 26.5705 37.7747 26.5705ZM36.977 24.5679C36.977 24.7716 37.0534 24.9498 37.2061 25.1025C37.3589 25.2553 37.5371 25.326 37.7407 25.3146C37.95 25.309 38.1282 25.2326 38.2753 25.0855C38.428 24.9328 38.5044 24.7546 38.5044 24.551C38.5157 24.3473 38.445 24.1691 38.2923 24.0164C38.1395 23.8637 37.9585 23.7901 37.7492 23.7958C37.5512 23.8014 37.3759 23.8806 37.2231 24.0334C37.0704 24.1861 36.9884 24.3643 36.977 24.5679Z" fill="white"/>
</svg>
