<svg width="54" height="53" fill="none" xmlns="http://www.w3.org/2000/svg"><path d="M51.5 2H.5l51 50.5V2z" fill="#2196F3"/><path d="M33.007 10.534l1.17 1.17-5.94 5.94-.89-.89 1.086-6.178-3.632 3.632-1.17-1.17 5.939-5.94.891.89-1.078 6.17 3.624-3.624zm-1.376 8.263l2.503 2.503-1.12 1.12-3.674-3.674 5.94-5.94 3.631 3.632-1.12 1.12-2.46-2.46-1.265 1.264 2.249 2.249-1.103 1.103-2.25-2.249-1.331 1.332zm3.447 5.688l4.277-7.603 1.23 1.23-3.267 5.541 5.643-3.165 1.001 1.002-3.156 5.65 5.54-3.266 1.23 1.23-7.602 4.277-1.332-1.332 2.8-5.04-5.032 2.808-1.332-1.332z" fill="#fff"/></svg>