<svg width="206" height="40" viewBox="0 0 206 40" fill="none" xmlns="http://www.w3.org/2000/svg">
<path d="M178.641 27.0001L179.082 24.4719L186.029 18.4337C187.567 17.0919 188.426 15.9464 188.606 14.9973C188.721 14.3264 188.606 13.7864 188.262 13.3773C187.919 12.9682 187.436 12.7637 186.814 12.7637C185.603 12.7637 184.556 13.4592 183.672 14.8501L180.972 13.1073C181.725 11.9128 182.642 11.0128 183.722 10.4073C184.818 9.78552 185.996 9.47461 187.256 9.47461C188.762 9.47461 189.997 10.0064 190.962 11.0701C191.944 12.1173 192.288 13.4673 191.993 15.1201C191.813 16.1019 191.437 17.0019 190.864 17.8201C190.292 18.6219 189.482 19.4728 188.434 20.3728L184.482 23.7355H190.717L190.152 27.0001H178.641Z" fill="#19C032"/>
<path d="M205.703 20.9373L205.163 24.0792H203.297L202.782 27.0001H199.37L199.885 24.0792H191.761L192.325 20.9373L199.836 9.81825H203.641L196.105 20.9373H200.45L201.162 16.8628H204.574L203.862 20.9373H205.703Z" fill="#19C032"/>
<path d="M67.9784 18.09C69.4839 18.9573 70.2366 20.2664 70.2366 22.0173C70.2366 23.4736 69.7212 24.6682 68.6902 25.6009C67.6593 26.5336 66.3912 27 64.8857 27H57.5957V9.81817H64.3702C65.843 9.81817 67.0784 10.2764 68.0766 11.1927C69.0912 12.0927 69.5984 13.2464 69.5984 14.6536C69.5984 16.0773 69.0584 17.2227 67.9784 18.09ZM64.3702 12.9845H60.983V16.7645H64.3702C64.8939 16.7645 65.3275 16.5845 65.6712 16.2245C66.0312 15.8645 66.2112 15.4145 66.2112 14.8745C66.2112 14.3345 66.0393 13.8845 65.6957 13.5245C65.3521 13.1645 64.9102 12.9845 64.3702 12.9845ZM64.8857 23.8336C65.4584 23.8336 65.933 23.6454 66.3093 23.2691C66.6857 22.8764 66.8739 22.3854 66.8739 21.7964C66.8739 21.2236 66.6857 20.7491 66.3093 20.3727C65.933 19.98 65.4584 19.7836 64.8857 19.7836H60.983V23.8336H64.8857Z" fill="black"/>
<path d="M81.829 14.7273H84.9953V27H81.829V25.5518C80.8799 26.7464 79.5462 27.3436 77.8281 27.3436C76.1917 27.3436 74.7844 26.7218 73.6062 25.4782C72.4444 24.2182 71.8635 22.68 71.8635 20.8636C71.8635 19.0473 72.4444 17.5173 73.6062 16.2736C74.7844 15.0136 76.1917 14.3836 77.8281 14.3836C79.5462 14.3836 80.8799 14.9809 81.829 16.1754V14.7273ZM75.9872 23.3673C76.6253 24.0054 77.4353 24.3245 78.4172 24.3245C79.399 24.3245 80.209 24.0054 80.8472 23.3673C81.5017 22.7127 81.829 21.8782 81.829 20.8636C81.829 19.8491 81.5017 19.0227 80.8472 18.3845C80.209 17.73 79.399 17.4027 78.4172 17.4027C77.4353 17.4027 76.6253 17.73 75.9872 18.3845C75.349 19.0227 75.0299 19.8491 75.0299 20.8636C75.0299 21.8782 75.349 22.7127 75.9872 23.3673Z" fill="black"/>
<path d="M94.6902 14.3836C96.032 14.3836 97.1366 14.8336 98.0038 15.7336C98.8875 16.6336 99.3293 17.8773 99.3293 19.4645V27H96.1629V19.8573C96.1629 19.0391 95.942 18.4173 95.5002 17.9918C95.0584 17.55 94.4693 17.3291 93.7329 17.3291C92.9148 17.3291 92.2602 17.5827 91.7693 18.09C91.2784 18.5973 91.0329 19.3582 91.0329 20.3727V27H87.8666V14.7273H91.0329V16.1018C91.802 14.9564 93.0211 14.3836 94.6902 14.3836Z" fill="black"/>
<path d="M113.348 27H109.667L105.199 21.4282V27H102.033V9.81817H105.199V20.1273L109.421 14.7273H113.201L108.267 20.79L113.348 27Z" fill="black"/>
<path d="M124.919 24.03H130.368V27H120.673V24.8891L125.852 17.6973H120.918V14.7273H130.123V16.8382L124.919 24.03Z" fill="black"/>
<path d="M141.251 14.7273H144.417V27H141.251V25.5518C140.302 26.7464 138.968 27.3436 137.25 27.3436C135.614 27.3436 134.206 26.7218 133.028 25.4782C131.866 24.2182 131.286 22.68 131.286 20.8636C131.286 19.0473 131.866 17.5173 133.028 16.2736C134.206 15.0136 135.614 14.3836 137.25 14.3836C138.968 14.3836 140.302 14.9809 141.251 16.1754V14.7273ZM135.409 23.3673C136.047 24.0054 136.857 24.3245 137.839 24.3245C138.821 24.3245 139.631 24.0054 140.269 23.3673C140.924 22.7127 141.251 21.8782 141.251 20.8636C141.251 19.8491 140.924 19.0227 140.269 18.3845C139.631 17.73 138.821 17.4027 137.839 17.4027C136.857 17.4027 136.047 17.73 135.409 18.3845C134.771 19.0227 134.452 19.8491 134.452 20.8636C134.452 21.8782 134.771 22.7127 135.409 23.3673Z" fill="black"/>
<path d="M148.86 13.2545C148.336 13.2545 147.878 13.0664 147.485 12.69C147.109 12.2973 146.92 11.8391 146.92 11.3154C146.92 10.7918 147.109 10.3336 147.485 9.9409C147.878 9.54817 148.336 9.35181 148.86 9.35181C149.4 9.35181 149.858 9.54817 150.234 9.9409C150.627 10.3336 150.823 10.7918 150.823 11.3154C150.823 11.8391 150.627 12.2973 150.234 12.69C149.858 13.0664 149.4 13.2545 148.86 13.2545ZM147.289 27V14.7273H150.455V27H147.289Z" fill="black"/>
<path d="M166.927 14.3836C168.334 14.3836 169.455 14.8418 170.289 15.7582C171.14 16.6745 171.566 17.9018 171.566 19.44V27H168.399V19.6609C168.399 18.9245 168.219 18.3518 167.859 17.9427C167.499 17.5336 166.992 17.3291 166.338 17.3291C165.618 17.3291 165.053 17.5664 164.644 18.0409C164.251 18.5154 164.055 19.2027 164.055 20.1027V27H160.889V19.6609C160.889 18.9245 160.709 18.3518 160.349 17.9427C159.989 17.5336 159.481 17.3291 158.827 17.3291C158.123 17.3291 157.559 17.5664 157.133 18.0409C156.724 18.5154 156.519 19.2027 156.519 20.1027V27H153.353V14.7273H156.519V16.0282C157.256 14.9318 158.393 14.3836 159.931 14.3836C161.437 14.3836 162.549 14.9727 163.269 16.1509C164.088 14.9727 165.307 14.3836 166.927 14.3836Z" fill="black"/>
<g clip-path="url(#clip0)">
<path d="M12.4689 17.4064H4.93742C4.46349 17.4064 4.03624 17.1208 3.85497 16.6829C3.67339 16.2449 3.77379 15.7411 4.10887 15.4057L11.64 7.87457C11.86 7.65485 12.1579 7.53125 12.4689 7.53125H20C20.4739 7.53125 20.9012 7.81689 21.0828 8.25482C21.264 8.69275 21.1636 9.1969 20.8285 9.53198L13.2974 17.0631C13.0777 17.2828 12.7795 17.4064 12.4689 17.4064Z" fill="#22D63D"/>
<path d="M23.7653 36.2345C23.6146 36.2345 23.4623 36.2052 23.3173 36.145C22.8794 35.9638 22.5938 35.5365 22.5938 35.0626V27.5311C22.5938 27.2205 22.7173 26.9223 22.9371 26.7026L30.4682 19.1715C30.8033 18.8364 31.3074 18.736 31.7454 18.9173C32.1833 19.0988 32.4689 19.5261 32.4689 20V27.5311C32.4689 27.8421 32.3453 28.1403 32.1256 28.36L24.5945 35.8911C24.3702 36.1154 24.0705 36.2345 23.7653 36.2345Z" fill="#68544F"/>
<path d="M6.43738 40H1.17188C0.524597 40 0 39.4754 0 38.8281V33.5626C0 30.986 1.00067 28.5635 2.81799 26.7383C2.82318 26.7331 2.82837 26.7276 2.83356 26.7224C5.39948 24.1568 9.51263 24.0588 12.1976 26.4996C12.5861 26.8527 12.8394 27.0831 12.8394 27.0831C12.8665 27.1078 12.8925 27.1341 12.9172 27.1613L13.5001 27.8021C15.9363 30.4825 15.8438 34.5843 13.2925 37.1509C13.2874 37.1564 13.2822 37.1619 13.2767 37.167C11.4499 38.9938 9.021 40 6.43738 40Z" fill="#FDBF00"/>
<path d="M22.0834 24.192L15.8075 17.9161C15.5878 17.6964 15.2896 17.5728 14.9789 17.5728C14.6683 17.5728 14.3701 17.696 14.1504 17.9161L11.0123 21.0539C10.7925 21.2736 10.6689 21.5718 10.6689 21.8824C10.6689 22.1934 10.7925 22.4916 11.0123 22.711L17.2885 28.9872C17.5082 29.207 17.8061 29.3306 18.1171 29.3306C18.4277 29.3306 18.7259 29.207 18.9456 28.9872L22.0834 25.8491C22.3032 25.6294 22.4268 25.3315 22.4268 25.0206C22.4268 24.7099 22.3032 24.4117 22.0834 24.192Z" fill="#22D63D"/>
<path d="M31.7454 18.9173C31.3071 18.7361 30.8033 18.8362 30.4679 19.1712L22.9368 26.7024C22.7173 26.9227 22.5938 27.2205 22.5938 27.5312V35.0626C22.5938 35.5369 22.8791 35.9641 23.3173 36.1454C23.4626 36.2055 23.6143 36.2345 23.7656 36.2345C24.0705 36.2345 24.3705 36.1158 24.5945 35.8915L32.1259 28.3604C32.3453 28.14 32.4689 27.8422 32.4689 27.5312V20.0001C32.4689 19.5259 32.1836 19.0986 31.7454 18.9173Z" fill="#0CAD25"/>
<path d="M13.5002 27.8026L12.9173 27.1611C12.9048 27.1476 12.8923 27.1345 12.8792 27.1211L0.34375 39.6565C0.555542 39.8689 0.848511 40.0001 1.172 40.0001H6.4375C9.02112 40.0001 11.45 38.994 13.2768 37.1672C13.2823 37.162 13.2875 37.1565 13.2924 37.151C15.8439 34.5845 15.9367 30.4823 13.5002 27.8026Z" fill="#FF9F00"/>
<path d="M22.4271 25.0211C22.4271 25.332 22.3035 25.6296 22.0834 25.8493L21.2543 26.6782L18.9459 28.9874C18.7256 29.2072 18.4277 29.3304 18.1168 29.3304C17.8061 29.3304 17.5082 29.2072 17.2879 28.9874L14.1504 25.8499L17.2879 22.7118L18.9459 21.0547L22.0834 24.1922C22.3035 24.4116 22.4271 24.7101 22.4271 25.0211Z" fill="#0CAD25"/>
<path d="M38.828 0H34.2903C31.982 0 29.7301 0.447998 27.5972 1.33118C25.4647 2.21466 23.5558 3.4903 21.9234 5.12268L11.6399 15.4056C11.4202 15.6256 11.2969 15.9235 11.2969 16.2344C11.2969 16.5451 11.4202 16.8433 11.6399 17.063L22.9369 28.36C23.1658 28.5889 23.4658 28.703 23.7654 28.703C24.0654 28.703 24.3654 28.5886 24.594 28.36L34.8775 18.0768C36.5096 16.4444 37.7852 14.5355 38.6687 12.4026C39.5522 10.2701 39.9999 8.01819 39.9999 5.70984V1.17188C39.9999 0.524597 39.4753 0 38.828 0Z" fill="#21A445"/>
<path d="M39.6562 0.34375L18.9461 21.0548L17.2881 22.7119L22.9366 28.3604C23.1655 28.5893 23.4655 28.7031 23.7654 28.7031C24.0654 28.7031 24.3654 28.5893 24.5943 28.3604L32.4688 20.4854L34.8772 18.0766C36.5099 16.4445 37.7849 14.5353 38.6687 12.4025C39.5522 10.2705 39.9999 8.01801 39.9999 5.70935V1.172C39.9999 0.848511 39.8687 0.555542 39.6562 0.34375Z" fill="#1D8F3D"/>
<path d="M24.7555 16.9853C24.7457 16.9814 24.7367 16.9757 24.7289 16.9687L23.463 15.8304C23.0524 15.4611 22.4201 15.4946 22.0508 15.9053L21.4323 16.593C21.4212 16.6054 21.4076 16.6152 21.3924 16.6218C20.5119 17.0042 19.5759 16.2089 19.8111 15.2782L19.8264 15.2177C19.8311 15.199 19.8403 15.1818 19.8532 15.1674L20.4689 14.4828C20.8382 14.0721 20.8047 13.4398 20.394 13.0705L19.8605 12.5907C19.854 12.5849 19.8484 12.5782 19.8439 12.5708C19.3879 11.8214 20.1858 10.9382 20.9841 11.302C20.9924 11.3058 21.0001 11.3108 21.0069 11.3169L21.9476 12.1629C22.1331 12.3297 22.4187 12.3146 22.5855 12.1291C22.7523 11.9436 22.7371 11.658 22.5516 11.4912L21.6115 10.6458C21.6043 10.6393 21.5982 10.6317 21.5934 10.6233C21.1666 9.87103 21.944 9.00306 22.7337 9.35602C22.7422 9.35983 22.7501 9.36495 22.757 9.37119L23.2898 9.8503C23.7005 10.2196 24.3328 10.1861 24.702 9.77539L27.3839 6.79313C27.7532 6.38247 28.3854 6.34893 28.7961 6.71822L31.549 9.19375C32.5575 10.1007 33.126 11.0888 33.2544 12.158C33.3867 13.223 33.0614 14.1907 32.2786 15.0611C31.4808 15.9483 30.5676 16.3873 29.5389 16.3781C28.514 16.3647 27.4854 15.9052 26.453 14.9995L24.8052 13.5178C24.6197 13.351 24.3341 13.3661 24.1673 13.5516C24.0006 13.7371 24.0157 14.0226 24.2012 14.1894L25.8742 15.6939C25.8824 15.7013 25.8893 15.7102 25.8943 15.72C26.278 16.4665 25.5337 17.2997 24.7555 16.9853ZM26.2839 11.1979C25.9146 11.6086 25.9482 12.2408 26.3588 12.6101L27.5047 13.6406C28.0738 14.1524 28.6276 14.4119 29.166 14.4192C29.7044 14.4265 30.2088 14.1686 30.6792 13.6455C31.1007 13.1768 31.2965 12.6603 31.2665 12.096C31.2408 11.5355 30.9741 11.0156 30.4665 10.5364L29.2264 9.42128C28.8157 9.05199 28.1835 9.08553 27.8142 9.49619L26.2839 11.1979Z" fill="white"/>
<mask id="mask0" mask-type="alpha" maskUnits="userSpaceOnUse" x="19" y="6" width="18" height="16">
<path d="M19.25 20.75L33.25 6.75L36.25 14.5L28.75 21.5L19.25 20.75Z" fill="#C4C4C4"/>
</mask>
<g mask="url(#mask0)">
<path d="M24.7555 16.9853C24.7457 16.9814 24.7367 16.9757 24.7289 16.9687L23.463 15.8304C23.0524 15.4611 22.4201 15.4946 22.0508 15.9053L21.4323 16.593C21.4212 16.6054 21.4076 16.6152 21.3924 16.6218C20.5119 17.0042 19.5759 16.2089 19.8111 15.2782L19.8264 15.2177C19.8311 15.199 19.8403 15.1818 19.8532 15.1674L20.4689 14.4828C20.8382 14.0721 20.8047 13.4398 20.394 13.0705L19.8605 12.5907C19.854 12.5849 19.8484 12.5782 19.8439 12.5708C19.3879 11.8214 20.1858 10.9382 20.9841 11.302C20.9924 11.3058 21.0001 11.3108 21.0069 11.3169L21.9476 12.1629C22.1331 12.3297 22.4187 12.3146 22.5855 12.1291C22.7523 11.9436 22.7371 11.658 22.5516 11.4912L21.6115 10.6458C21.6043 10.6393 21.5982 10.6317 21.5934 10.6233C21.1666 9.87103 21.944 9.00306 22.7337 9.35602C22.7422 9.35983 22.7501 9.36495 22.757 9.37119L23.2898 9.8503C23.7005 10.2196 24.3328 10.1861 24.702 9.77539L27.3839 6.79313C27.7532 6.38247 28.3854 6.34893 28.7961 6.71822L31.549 9.19375C32.5575 10.1007 33.126 11.0888 33.2544 12.158C33.3867 13.223 33.0614 14.1907 32.2786 15.0611C31.4808 15.9483 30.5676 16.3873 29.5389 16.3781C28.514 16.3647 27.4854 15.9052 26.453 14.9995L24.8052 13.5178C24.6197 13.351 24.3341 13.3661 24.1673 13.5516C24.0006 13.7371 24.0157 14.0226 24.2012 14.1894L25.8742 15.6939C25.8824 15.7013 25.8893 15.7102 25.8943 15.72C26.278 16.4665 25.5337 17.2997 24.7555 16.9853ZM26.2839 11.1979C25.9146 11.6086 25.9482 12.2408 26.3588 12.6101L27.5047 13.6406C28.0738 14.1524 28.6276 14.4119 29.166 14.4192C29.7044 14.4265 30.2088 14.1686 30.6792 13.6455C31.1007 13.1768 31.2965 12.6603 31.2665 12.096C31.2408 11.5355 30.9741 11.0156 30.4665 10.5364L29.2264 9.42128C28.8157 9.05199 28.1835 9.08553 27.8142 9.49619L26.2839 11.1979Z" fill="#EBEBEB"/>
</g>
</g>
<defs>
<clipPath id="clip0">
<path d="M0 0H40V40H0V0Z" fill="white"/>
</clipPath>
</defs>
</svg>
