<svg width="49" height="48" fill="none" xmlns="http://www.w3.org/2000/svg"><g clip-path="url(#clip0)"><path d="M24.048 48c13.282 0 24.048-10.767 24.048-24.048C48.096 10.67 37.33-.096 24.048-.096 10.767-.096 0 10.67 0 23.952 0 37.233 10.767 48 24.048 48z" fill="#D93132"/><path fill-rule="evenodd" clip-rule="evenodd" d="M35.216 28.116h-3.649a2.193 2.193 0 010-4.384h3.649a.663.663 0 01.664.664v3.056a.665.665 0 01-.664.664zm-3.782-3.055a.863.863 0 10-.002 1.726.863.863 0 00.002-1.726zm-2.853.863a2.855 2.855 0 002.853 2.856h3.16v4.521a1.329 1.329 0 01-1.327 1.329H13.64a1.329 1.329 0 01-1.328-1.329v-16.11a.023.023 0 01.005-.014.022.022 0 01.008-.006.021.021 0 01.01-.002l2.099.001h18.835a1.328 1.328 0 011.226.82c.066.162.1.335.1.509v4.569h-3.16a2.855 2.855 0 00-2.854 2.856z" fill="#FFDD6E"/><path fill-rule="evenodd" clip-rule="evenodd" d="M25.326 12.409a2.01 2.01 0 00-.535.073l-12.402 4.743h14.864l.03-3.305a2.03 2.03 0 00-1.957-1.511z" fill="#F09A56"/></g><defs><clipPath id="clip0"><path fill="#fff" d="M0 0h48.096v48H0z"/></clipPath></defs></svg>