<svg width="144" height="28" viewBox="0 0 144 28" fill="none" xmlns="http://www.w3.org/2000/svg">
<path d="M124.875 18.8737L125.183 17.1065L130.039 12.8856C131.114 11.9476 131.715 11.1469 131.841 10.4835C131.921 10.0145 131.841 9.63701 131.601 9.35105C131.36 9.06508 131.023 8.9221 130.588 8.9221C129.742 8.9221 129.01 9.40824 128.392 10.3805L126.505 9.16231C127.031 8.32728 127.671 7.69816 128.426 7.27493C129.193 6.84026 130.016 6.62292 130.897 6.62292C131.949 6.62292 132.813 6.99468 133.488 7.73819C134.174 8.47027 134.414 9.41396 134.209 10.5693C134.083 11.2556 133.82 11.8847 133.419 12.4566C133.019 13.0171 132.453 13.6119 131.721 14.2411L128.958 16.5917H133.316L132.922 18.8737H124.875Z" fill="#19C032"/>
<path d="M143.792 14.6357L143.414 16.8319H142.11L141.75 18.8737H139.365L139.725 16.8319H134.046L134.441 14.6357L139.691 6.86314H142.351L137.083 14.6357H140.12L140.618 11.7875H143.003L142.505 14.6357H143.792Z" fill="#19C032"/>
<path d="M47.5187 12.6455C48.5711 13.2517 49.0972 14.1668 49.0972 15.3908C49.0972 16.4088 48.7369 17.2438 48.0163 17.8958C47.2956 18.5478 46.4091 18.8738 45.3568 18.8738H40.2609V6.86323H44.9965C46.0259 6.86323 46.8896 7.18352 47.5873 7.82408C48.2965 8.45321 48.6511 9.25963 48.6511 10.2434C48.6511 11.2385 48.2736 12.0392 47.5187 12.6455ZM44.9965 9.07661H42.6287V11.7189H44.9965C45.3625 11.7189 45.6656 11.5931 45.9058 11.3415C46.1575 11.0898 46.2833 10.7753 46.2833 10.3978C46.2833 10.0203 46.1632 9.70574 45.923 9.45409C45.6828 9.20244 45.3739 9.07661 44.9965 9.07661ZM45.3568 16.6604C45.7571 16.6604 46.0889 16.5289 46.352 16.2658C46.615 15.9913 46.7466 15.6481 46.7466 15.2363C46.7466 14.836 46.615 14.5043 46.352 14.2412C46.0889 13.9666 45.7571 13.8294 45.3568 13.8294H42.6287V16.6604H45.3568Z" fill="black"/>
<path d="M57.2006 10.2948H59.414V18.8738H57.2006V17.8615C56.5372 18.6965 55.6049 19.114 54.4039 19.114C53.26 19.114 52.2763 18.6794 51.4527 17.81C50.6406 16.9293 50.2345 15.854 50.2345 14.5843C50.2345 13.3146 50.6406 12.2451 51.4527 11.3758C52.2763 10.495 53.26 10.0546 54.4039 10.0546C55.6049 10.0546 56.5372 10.4721 57.2006 11.3072V10.2948ZM53.117 16.3344C53.5631 16.7806 54.1293 17.0036 54.8157 17.0036C55.502 17.0036 56.0682 16.7806 56.5143 16.3344C56.9718 15.8769 57.2006 15.2935 57.2006 14.5843C57.2006 13.8751 56.9718 13.2975 56.5143 12.8514C56.0682 12.3938 55.502 12.1651 54.8157 12.1651C54.1293 12.1651 53.5631 12.3938 53.117 12.8514C52.6709 13.2975 52.4479 13.8751 52.4479 14.5843C52.4479 15.2935 52.6709 15.8769 53.117 16.3344Z" fill="black"/>
<path d="M66.191 10.0546C67.129 10.0546 67.9011 10.3692 68.5073 10.9983C69.125 11.6274 69.4339 12.4968 69.4339 13.6063V18.8738H67.2205V13.8809C67.2205 13.3089 67.0661 12.8742 66.7572 12.5768C66.4484 12.268 66.0366 12.1136 65.5218 12.1136C64.9499 12.1136 64.4924 12.2909 64.1492 12.6455C63.806 13.0001 63.6345 13.532 63.6345 14.2412V18.8738H61.4211V10.2948H63.6345V11.2557C64.1721 10.455 65.0243 10.0546 66.191 10.0546Z" fill="black"/>
<path d="M79.2336 18.8738H76.6599L73.5372 14.979V18.8738H71.3238V6.86323H73.5372V14.0696L76.4883 10.2948H79.1307L75.6819 14.5329L79.2336 18.8738Z" fill="black"/>
<path d="M87.3217 16.7977H91.1308V18.8738H84.3534V17.3982L87.9737 12.3709H84.525V10.2948H90.9592V11.7704L87.3217 16.7977Z" fill="black"/>
<path d="M98.7384 10.2948H100.952V18.8738H98.7384V17.8615C98.0749 18.6965 97.1427 19.114 95.9416 19.114C94.7978 19.114 93.814 18.6794 92.9904 17.81C92.1783 16.9293 91.7722 15.854 91.7722 14.5843C91.7722 13.3146 92.1783 12.2451 92.9904 11.3758C93.814 10.495 94.7978 10.0546 95.9416 10.0546C97.1427 10.0546 98.0749 10.4721 98.7384 11.3072V10.2948ZM94.6548 16.3344C95.1009 16.7806 95.6671 17.0036 96.3534 17.0036C97.0397 17.0036 97.6059 16.7806 98.0521 16.3344C98.5096 15.8769 98.7384 15.2935 98.7384 14.5843C98.7384 13.8751 98.5096 13.2975 98.0521 12.8514C97.6059 12.3938 97.0397 12.1651 96.3534 12.1651C95.6671 12.1651 95.1009 12.3938 94.6548 12.8514C94.2087 13.2975 93.9856 13.8751 93.9856 14.5843C93.9856 15.2935 94.2087 15.8769 94.6548 16.3344Z" fill="black"/>
<path d="M104.057 9.26535C103.691 9.26535 103.371 9.13381 103.096 8.87072C102.833 8.59619 102.701 8.27591 102.701 7.90987C102.701 7.54383 102.833 7.22355 103.096 6.94902C103.371 6.6745 103.691 6.53723 104.057 6.53723C104.434 6.53723 104.755 6.6745 105.018 6.94902C105.292 7.22355 105.43 7.54383 105.43 7.90987C105.43 8.27591 105.292 8.59619 105.018 8.87072C104.755 9.13381 104.434 9.26535 104.057 9.26535ZM102.959 18.8738V10.2948H105.172V18.8738H102.959Z" fill="black"/>
<path d="M116.686 10.0546C117.67 10.0546 118.454 10.3749 119.037 11.0155C119.632 11.656 119.929 12.5139 119.929 13.5892V18.8738H117.716V13.7436C117.716 13.2288 117.59 12.8285 117.338 12.5425C117.087 12.2566 116.732 12.1136 116.275 12.1136C115.771 12.1136 115.377 12.2794 115.091 12.6112C114.816 12.9429 114.679 13.4233 114.679 14.0524V18.8738H112.466V13.7436C112.466 13.2288 112.34 12.8285 112.088 12.5425C111.836 12.2566 111.482 12.1136 111.024 12.1136C110.532 12.1136 110.138 12.2794 109.84 12.6112C109.554 12.9429 109.411 13.4233 109.411 14.0524V18.8738H107.198V10.2948H109.411V11.2042C109.926 10.4378 110.721 10.0546 111.796 10.0546C112.849 10.0546 113.627 10.4664 114.13 11.29C114.702 10.4664 115.554 10.0546 116.686 10.0546Z" fill="black"/>
<g clip-path="url(#clip0)">
<path d="M8.71614 12.1674H3.45145C3.12015 12.1674 2.82149 11.9678 2.69478 11.6616C2.56785 11.3555 2.63803 11.0033 2.87226 10.7689L8.13674 5.5044C8.29055 5.3508 8.49876 5.2644 8.71614 5.2644H13.9806C14.3119 5.2644 14.6106 5.46408 14.7375 5.7702C14.8642 6.07633 14.794 6.42874 14.5598 6.66297L9.29532 11.9275C9.14172 12.081 8.9333 12.1674 8.71614 12.1674Z" fill="#22D63D"/>
<path d="M16.6125 25.3289C16.5072 25.3289 16.4007 25.3084 16.2994 25.2664C15.9933 25.1397 15.7936 24.841 15.7936 24.5097V19.245C15.7936 19.0279 15.88 18.8195 16.0336 18.6659L21.298 13.4014C21.5323 13.1671 21.8847 13.097 22.1908 13.2237C22.4969 13.3506 22.6966 13.6493 22.6966 13.9806V19.245C22.6966 19.4624 22.6102 19.6708 22.4566 19.8244L17.1921 25.0889C17.0354 25.2457 16.8259 25.3289 16.6125 25.3289Z" fill="#68544F"/>
<path d="M4.49991 27.9612H0.819175C0.366709 27.9612 0 27.5945 0 27.142V23.4613C0 21.6602 0.699498 19.9668 1.96986 18.6909C1.97349 18.6872 1.97711 18.6834 1.98074 18.6798C3.77439 16.8863 6.64961 16.8179 8.52646 18.524C8.79802 18.7709 8.97508 18.9319 8.97508 18.9319C8.99407 18.9492 9.0122 18.9676 9.02948 18.9865L9.43694 19.4345C11.1399 21.3082 11.0753 24.1755 9.29187 25.9696C9.28825 25.9734 9.28462 25.9773 9.28078 25.9809C8.00381 27.2579 6.30594 27.9612 4.49991 27.9612Z" fill="#FDBF00"/>
<path d="M15.4373 16.911L11.0502 12.5239C10.8967 12.3703 10.6882 12.2839 10.4711 12.2839C10.2539 12.2839 10.0455 12.3701 9.89188 12.5239L7.69824 14.7174C7.54465 14.8709 7.45825 15.0794 7.45825 15.2965C7.45825 15.5139 7.54465 15.7223 7.69824 15.8757L12.0855 20.263C12.2391 20.4166 12.4473 20.503 12.6647 20.503C12.8819 20.503 13.0903 20.4166 13.2439 20.263L15.4373 18.0694C15.5909 17.9158 15.6773 17.7076 15.6773 17.4902C15.6773 17.273 15.5909 17.0646 15.4373 16.911Z" fill="#22D63D"/>
<path d="M22.1908 13.2237C21.8845 13.097 21.5323 13.167 21.2978 13.4012L16.0334 18.6657C15.88 18.8197 15.7936 19.0279 15.7936 19.2451V24.5098C15.7936 24.8413 15.993 25.1399 16.2994 25.2667C16.4009 25.3087 16.5069 25.329 16.6128 25.329C16.8259 25.329 17.0356 25.246 17.1921 25.0892L22.4568 19.8247C22.6102 19.6707 22.6966 19.4625 22.6966 19.2451V13.9806C22.6966 13.6491 22.4972 13.3505 22.1908 13.2237Z" fill="#0CAD25"/>
<path d="M9.43684 19.4346L9.02939 18.9862C9.02064 18.9768 9.0119 18.9676 9.00272 18.9583L0.240112 27.7209C0.388161 27.8693 0.592955 27.9611 0.819081 27.9611H4.49982C6.30585 27.9611 8.00371 27.2577 9.28069 25.9808C9.28453 25.9771 9.28815 25.9733 9.29157 25.9694C11.0752 24.1754 11.14 21.3078 9.43684 19.4346Z" fill="#FF9F00"/>
<path d="M15.6775 17.4905C15.6775 17.7079 15.5911 17.9159 15.4373 18.0695L14.8577 18.6489L13.2441 20.2631C13.09 20.4167 12.8818 20.5029 12.6645 20.5029C12.4473 20.5029 12.2391 20.4167 12.0851 20.2631L9.89185 18.0699L12.0851 15.8763L13.2441 14.7179L15.4373 16.9111C15.5911 17.0645 15.6775 17.2731 15.6775 17.4905Z" fill="#0CAD25"/>
<path d="M27.142 0H23.9701C22.3565 0 20.7823 0.313164 19.2914 0.930531C17.8007 1.54811 16.4663 2.43982 15.3252 3.5809L8.13675 10.7689C7.98316 10.9228 7.89697 11.131 7.89697 11.3483C7.89697 11.5655 7.98316 11.7739 8.13675 11.9275L16.0337 19.8245C16.1937 19.9844 16.4034 20.0642 16.6129 20.0642C16.8226 20.0642 17.0323 19.9842 17.192 19.8245L24.3805 12.6362C25.5214 11.4951 26.4131 10.1608 27.0307 8.66981C27.6483 7.17908 27.9612 5.60495 27.9612 3.99134V0.819175C27.9612 0.366709 27.5945 0 27.142 0Z" fill="#21A445"/>
<path d="M27.721 0.240112L13.244 14.7177L12.085 15.8761L16.0334 19.8246C16.1934 19.9846 16.4031 20.0641 16.6128 20.0641C16.8225 20.0641 17.0322 19.9846 17.1922 19.8246L22.6967 14.3197L24.3803 12.6359C25.5216 11.495 26.4128 10.1604 27.0306 8.66951C27.6482 7.1792 27.9612 5.60464 27.9612 3.99082V0.819081C27.9612 0.592955 27.8694 0.388161 27.721 0.240112Z" fill="#1D8F3D"/>
<path d="M17.3048 11.8732C17.298 11.8704 17.2917 11.8665 17.2862 11.8616L16.6251 11.2671C16.2144 10.8978 15.5822 10.9313 15.2129 11.342L14.9818 11.599C14.974 11.6076 14.9645 11.6144 14.9539 11.6191C14.3384 11.8864 13.6841 11.3305 13.8485 10.6799L13.8592 10.6376C13.8625 10.6245 13.869 10.6124 13.878 10.6024L14.1071 10.3476C14.4764 9.93697 14.4428 9.30469 14.0322 8.9354L13.883 8.80126C13.8785 8.79721 13.8746 8.79251 13.8715 8.78733C13.5527 8.26346 14.1105 7.64608 14.6685 7.90039C14.6743 7.90303 14.6796 7.90655 14.6844 7.9108L15.342 8.50219C15.4717 8.61878 15.6713 8.6082 15.7879 8.47854C15.9045 8.34889 15.8939 8.14927 15.7642 8.03268L15.107 7.4417C15.102 7.43718 15.0977 7.43184 15.0944 7.42596C14.796 6.9001 15.3395 6.29337 15.8915 6.54009C15.8974 6.54275 15.9029 6.54633 15.9078 6.5507L16.0564 6.68437C16.4671 7.05366 17.0994 7.02012 17.4687 6.60945L18.9408 4.97235C19.3101 4.56169 19.9424 4.52815 20.3531 4.89744L22.0536 6.42666C22.7586 7.06064 23.156 7.75132 23.2458 8.49872C23.3382 9.2432 23.1108 9.91967 22.5637 10.5281C22.006 11.1483 21.3676 11.4552 20.6485 11.4487C19.9321 11.4394 19.213 11.1182 18.4914 10.4851L17.3395 9.44926C17.2099 9.33267 17.0102 9.34326 16.8937 9.47291C16.7771 9.60257 16.7877 9.80219 16.9173 9.91878L18.0868 10.9704C18.0925 10.9756 18.0973 10.9818 18.1009 10.9887C18.3691 11.5105 17.8488 12.0929 17.3048 11.8732ZM18.5744 7.60383C18.2052 8.01449 18.2387 8.64677 18.6494 9.01606L19.2266 9.53512C19.6244 9.89288 20.0115 10.0743 20.3879 10.0794C20.7642 10.0845 21.1168 9.90426 21.4456 9.53859C21.7403 9.21096 21.8771 8.8499 21.8562 8.45543C21.8382 8.06359 21.6518 7.70018 21.2969 7.36521L20.6539 6.78696C20.2432 6.41767 19.6109 6.45121 19.2417 6.86187L18.5744 7.60383Z" fill="white"/>
<mask id="mask0" mask-type="alpha" maskUnits="userSpaceOnUse" x="13" y="4" width="13" height="12">
<path d="M13.4563 14.5049L23.2427 4.71851L25.3398 10.136L20.0971 15.0292L13.4563 14.5049Z" fill="#C4C4C4"/>
</mask>
<g mask="url(#mask0)">
<path d="M17.3048 11.8734C17.298 11.8707 17.2917 11.8667 17.2862 11.8618L16.6251 11.2673C16.2144 10.898 15.5822 10.9316 15.2129 11.3422L14.9818 11.5992C14.974 11.6078 14.9645 11.6147 14.9539 11.6193C14.3384 11.8867 13.6841 11.3307 13.8485 10.6801L13.8592 10.6378C13.8625 10.6248 13.869 10.6127 13.878 10.6027L14.1071 10.3479C14.4764 9.93721 14.4428 9.30493 14.0322 8.93564L13.883 8.80151C13.8785 8.79745 13.8746 8.79276 13.8715 8.78758C13.5527 8.26371 14.1105 7.64632 14.6685 7.90063C14.6743 7.90327 14.6796 7.90679 14.6844 7.91105L15.342 8.50244C15.4717 8.61903 15.6713 8.60844 15.7879 8.47879C15.9045 8.34913 15.8939 8.14951 15.7642 8.03292L15.107 7.44194C15.102 7.43742 15.0977 7.43209 15.0944 7.42621C14.796 6.90034 15.3395 6.29361 15.8915 6.54034C15.8974 6.543 15.9029 6.54658 15.9078 6.55094L16.0564 6.68461C16.4671 7.0539 17.0994 7.02036 17.4687 6.6097L18.9408 4.97259C19.3101 4.56193 19.9424 4.52839 20.3531 4.89768L22.0536 6.4269C22.7586 7.06088 23.156 7.75157 23.2458 8.49897C23.3382 9.24344 23.1108 9.91991 22.5637 10.5284C22.006 11.1485 21.3676 11.4554 20.6485 11.449C19.9321 11.4396 19.213 11.1184 18.4914 10.4853L17.3395 9.44951C17.2099 9.33292 17.0102 9.34351 16.8937 9.47316C16.7771 9.60281 16.7877 9.80243 16.9173 9.91902L18.0868 10.9707C18.0925 10.9759 18.0973 10.9821 18.1009 10.989C18.3691 11.5108 17.8488 12.0932 17.3048 11.8734ZM18.5744 7.60407C18.2052 8.01473 18.2387 8.64701 18.6494 9.0163L19.2266 9.53536C19.6244 9.89313 20.0115 10.0746 20.3879 10.0797C20.7642 10.0848 21.1168 9.9045 21.4456 9.53884C21.7403 9.2112 21.8771 8.85015 21.8562 8.45568C21.8382 8.06383 21.6518 7.70043 21.2969 7.36546L20.6539 6.7872C20.2432 6.41791 19.6109 6.45145 19.2417 6.86211L18.5744 7.60407Z" fill="#EBEBEB"/>
</g>
</g>
<defs>
<clipPath id="clip0">
<path d="M0 0H27.9612V27.9612H0V0Z" fill="white"/>
</clipPath>
</defs>
</svg>
