<svg width="48" height="48" fill="none" xmlns="http://www.w3.org/2000/svg"><path d="M24 48c13.255 0 24-10.745 24-24S37.255 0 24 0 0 10.745 0 24s10.745 24 24 24z" fill="#E2E7F6"/><path fill-rule="evenodd" clip-rule="evenodd" d="M12.096 35.808v-7.904H20l-7.904 7.904z" fill="#FFA700"/><path fill-rule="evenodd" clip-rule="evenodd" d="M20 27.904v7.904h-7.904L20 27.904z" fill="#FF8900"/><path fill-rule="evenodd" clip-rule="evenodd" d="M20 35.808v-7.904h7.904L20 35.808z" fill="#FFCA49"/><path fill-rule="evenodd" clip-rule="evenodd" d="M27.904 27.904v7.904H20l7.904-7.904z" fill="#FFB83A"/><path fill-rule="evenodd" clip-rule="evenodd" d="M20 28v-7.904h7.904L20 28z" fill="#CACB4B"/><path fill-rule="evenodd" clip-rule="evenodd" d="M27.904 20.096V28H20l7.904-7.904z" fill="#B8BA3C"/><path fill-rule="evenodd" clip-rule="evenodd" d="M27.808 28v-7.904h7.904L27.808 28z" fill="#8DCC4E"/><path fill-rule="evenodd" clip-rule="evenodd" d="M35.712 20.096V28h-7.904l7.904-7.904z" fill="#71BB3E"/><path fill-rule="evenodd" clip-rule="evenodd" d="M27.808 20.096v-7.904h7.904l-7.904 7.904z" fill="#5FB640"/><path fill-rule="evenodd" clip-rule="evenodd" d="M35.712 12.192v7.904h-7.904l7.904-7.904z" fill="#4C9D33"/></svg>